<mxfile host="Electron" modified="2024-05-10T08:32:14.002Z" agent="Mozilla/5.0 (Windows NT 10.0; Win64; x64) AppleWebKit/537.36 (KHTML, like Gecko) draw.io/24.2.5 Chrome/120.0.6099.109 Electron/28.1.0 Safari/537.36" etag="sOsKAAftoVtET1w0QAP4" version="24.2.5" type="device">
  <diagram name="第 1 页" id="KIei5gy9RZfvalO3lB5-">
    <mxGraphModel dx="2022" dy="697" grid="1" gridSize="10" guides="1" tooltips="1" connect="1" arrows="1" fold="1" page="1" pageScale="1" pageWidth="827" pageHeight="1169" math="0" shadow="0">
      <root>
        <mxCell id="0" />
        <mxCell id="1" parent="0" />
        <mxCell id="bzdVAs4kjw63oC_upo0j-1" value="OnGameState&lt;div&gt;Changed&lt;/div&gt;" style="rounded=0;whiteSpace=wrap;html=1;" vertex="1" parent="1">
          <mxGeometry x="400" y="220" width="120" height="60" as="geometry" />
        </mxCell>
        <mxCell id="bzdVAs4kjw63oC_upo0j-9" style="edgeStyle=orthogonalEdgeStyle;rounded=0;orthogonalLoop=1;jettySize=auto;html=1;exitX=1;exitY=0.5;exitDx=0;exitDy=0;entryX=0;entryY=0.5;entryDx=0;entryDy=0;" edge="1" parent="1" source="bzdVAs4kjw63oC_upo0j-4" target="bzdVAs4kjw63oC_upo0j-7">
          <mxGeometry relative="1" as="geometry" />
        </mxCell>
        <mxCell id="bzdVAs4kjw63oC_upo0j-4" value="Game Manager&lt;div&gt;Script&lt;/div&gt;&lt;div&gt;(全局管理脚本)&lt;/div&gt;" style="rounded=0;whiteSpace=wrap;html=1;" vertex="1" parent="1">
          <mxGeometry x="20" y="380" width="120" height="60" as="geometry" />
        </mxCell>
        <mxCell id="bzdVAs4kjw63oC_upo0j-10" style="edgeStyle=orthogonalEdgeStyle;rounded=0;orthogonalLoop=1;jettySize=auto;html=1;entryX=0;entryY=0.5;entryDx=0;entryDy=0;" edge="1" parent="1" source="bzdVAs4kjw63oC_upo0j-7" target="bzdVAs4kjw63oC_upo0j-1">
          <mxGeometry relative="1" as="geometry" />
        </mxCell>
        <mxCell id="bzdVAs4kjw63oC_upo0j-13" value="通知" style="edgeLabel;html=1;align=center;verticalAlign=middle;resizable=0;points=[];fontStyle=1;fontSize=12;" vertex="1" connectable="0" parent="bzdVAs4kjw63oC_upo0j-10">
          <mxGeometry x="0.0926" relative="1" as="geometry">
            <mxPoint as="offset" />
          </mxGeometry>
        </mxCell>
        <mxCell id="bzdVAs4kjw63oC_upo0j-15" style="edgeStyle=orthogonalEdgeStyle;rounded=0;orthogonalLoop=1;jettySize=auto;html=1;entryX=0;entryY=0.5;entryDx=0;entryDy=0;" edge="1" parent="1" source="bzdVAs4kjw63oC_upo0j-7" target="bzdVAs4kjw63oC_upo0j-14">
          <mxGeometry relative="1" as="geometry" />
        </mxCell>
        <mxCell id="bzdVAs4kjw63oC_upo0j-19" value="设置" style="edgeLabel;html=1;align=center;verticalAlign=middle;resizable=0;points=[];fontStyle=1;fontSize=12;" vertex="1" connectable="0" parent="bzdVAs4kjw63oC_upo0j-15">
          <mxGeometry x="-0.0213" y="-2" relative="1" as="geometry">
            <mxPoint as="offset" />
          </mxGeometry>
        </mxCell>
        <mxCell id="bzdVAs4kjw63oC_upo0j-7" value="Game State 切换&lt;div&gt;(Gameplay/UI)&lt;/div&gt;" style="rounded=0;whiteSpace=wrap;html=1;" vertex="1" parent="1">
          <mxGeometry x="210" y="270" width="120" height="60" as="geometry" />
        </mxCell>
        <mxCell id="bzdVAs4kjw63oC_upo0j-11" style="edgeStyle=orthogonalEdgeStyle;rounded=0;orthogonalLoop=1;jettySize=auto;html=1;entryX=1;entryY=0.5;entryDx=0;entryDy=0;" edge="1" parent="1" source="bzdVAs4kjw63oC_upo0j-8" target="bzdVAs4kjw63oC_upo0j-1">
          <mxGeometry relative="1" as="geometry" />
        </mxCell>
        <mxCell id="bzdVAs4kjw63oC_upo0j-12" value="订阅" style="edgeLabel;html=1;align=center;verticalAlign=middle;resizable=0;points=[];fontStyle=1;fontSize=12;" vertex="1" connectable="0" parent="bzdVAs4kjw63oC_upo0j-11">
          <mxGeometry x="0.02" y="-3" relative="1" as="geometry">
            <mxPoint y="3" as="offset" />
          </mxGeometry>
        </mxCell>
        <mxCell id="bzdVAs4kjw63oC_upo0j-8" value="ActionMapChanger&lt;div&gt;Script&lt;/div&gt;" style="rounded=0;whiteSpace=wrap;html=1;fillColor=#d5e8d4;strokeColor=#82b366;" vertex="1" parent="1">
          <mxGeometry x="620" y="220" width="120" height="60" as="geometry" />
        </mxCell>
        <mxCell id="bzdVAs4kjw63oC_upo0j-22" style="edgeStyle=orthogonalEdgeStyle;rounded=0;orthogonalLoop=1;jettySize=auto;html=1;exitX=1;exitY=0.5;exitDx=0;exitDy=0;" edge="1" parent="1" source="bzdVAs4kjw63oC_upo0j-14" target="bzdVAs4kjw63oC_upo0j-20">
          <mxGeometry relative="1" as="geometry" />
        </mxCell>
        <mxCell id="bzdVAs4kjw63oC_upo0j-23" style="edgeStyle=orthogonalEdgeStyle;rounded=0;orthogonalLoop=1;jettySize=auto;html=1;entryX=0;entryY=0.5;entryDx=0;entryDy=0;" edge="1" parent="1" source="bzdVAs4kjw63oC_upo0j-14" target="bzdVAs4kjw63oC_upo0j-21">
          <mxGeometry relative="1" as="geometry" />
        </mxCell>
        <mxCell id="bzdVAs4kjw63oC_upo0j-14" value="Time.timeScale" style="rounded=0;whiteSpace=wrap;html=1;" vertex="1" parent="1">
          <mxGeometry x="400" y="320" width="120" height="60" as="geometry" />
        </mxCell>
        <mxCell id="bzdVAs4kjw63oC_upo0j-20" value="UI - 0" style="shape=delay;whiteSpace=wrap;html=1;" vertex="1" parent="1">
          <mxGeometry x="620" y="310" width="80" height="30" as="geometry" />
        </mxCell>
        <mxCell id="bzdVAs4kjw63oC_upo0j-21" value="Gameplay - 1" style="shape=delay;whiteSpace=wrap;html=1;" vertex="1" parent="1">
          <mxGeometry x="620" y="360" width="80" height="30" as="geometry" />
        </mxCell>
        <mxCell id="bzdVAs4kjw63oC_upo0j-28" value="所有需要订阅Game State切换的GameObject需要添加此脚本组件" style="shape=note;whiteSpace=wrap;html=1;backgroundOutline=1;fontColor=#000000;darkOpacity=0.05;fillColor=#FFF9B2;strokeColor=none;fillStyle=solid;direction=west;gradientDirection=north;gradientColor=#FFF2A1;shadow=1;size=20;pointerEvents=1;" vertex="1" parent="1">
          <mxGeometry x="827" y="210" width="180" height="80" as="geometry" />
        </mxCell>
        <mxCell id="bzdVAs4kjw63oC_upo0j-30" style="edgeStyle=orthogonalEdgeStyle;rounded=0;orthogonalLoop=1;jettySize=auto;html=1;exitX=1;exitY=0.5;exitDx=0;exitDy=0;entryX=0.988;entryY=0.494;entryDx=0;entryDy=0;entryPerimeter=0;" edge="1" parent="1" source="bzdVAs4kjw63oC_upo0j-8" target="bzdVAs4kjw63oC_upo0j-28">
          <mxGeometry relative="1" as="geometry" />
        </mxCell>
        <mxCell id="bzdVAs4kjw63oC_upo0j-33" style="edgeStyle=orthogonalEdgeStyle;rounded=0;orthogonalLoop=1;jettySize=auto;html=1;entryX=0.5;entryY=0;entryDx=0;entryDy=0;" edge="1" parent="1" source="bzdVAs4kjw63oC_upo0j-31" target="bzdVAs4kjw63oC_upo0j-4">
          <mxGeometry relative="1" as="geometry" />
        </mxCell>
        <mxCell id="bzdVAs4kjw63oC_upo0j-31" value="所有会导致Game State切换的GameObject要添加此脚本组件&lt;div&gt;(比如切到库存页面，装备页面等)&lt;/div&gt;" style="shape=note;whiteSpace=wrap;html=1;backgroundOutline=1;fontColor=#000000;darkOpacity=0.05;fillColor=#FFF9B2;strokeColor=none;fillStyle=solid;direction=west;gradientDirection=north;gradientColor=#FFF2A1;shadow=1;size=20;pointerEvents=1;" vertex="1" parent="1">
          <mxGeometry x="-10" y="200" width="180" height="100" as="geometry" />
        </mxCell>
      </root>
    </mxGraphModel>
  </diagram>
</mxfile>
